# xmcd
#
# Track frame offsets: 
#        150
#        13680
#        51945
#        83735
#        118215
#
# Disc length: 2016 seconds
#
# Revision: 0
# Processed by: cddbd v1.5.2PL0 Copyright (c) Steve Scherf et al.
# Submitted via: ExactAudioCopy v0.95b4
#
DISCID=3a07de05
DTITLE=Divine Inspiration - The way
DYEAR=1900
DGENRE=
TTITLE0=Radio Edit
TTITLE1=Svenson and Gielen Vocal Remix
TTITLE2=N-Trance Remix
TTITLE3=Voodoo and Serano Remix
TTITLE4=Green Martian Remix
EXTD=
EXTT0=
EXTT1=
EXTT2=
EXTT3=
EXTT4=
PLAYORDER=
